<svg t="1763040885714" class="icon" viewBox="0 0 1024 1024" version="1.1" xmlns="http://www.w3.org/2000/svg" p-id="53482" width="200" height="200"><path d="M1.024 511.488c0 280.064 230.912 510.976 510.976 510.976 280.064 0 510.976-230.912 510.976-510.976C1022.976 231.424 792.064 0.512 512 0.512 232.448 0.512 1.024 231.424 1.024 511.488z" fill="#FBE945" p-id="53483"></path><path d="M120.32 511.488c0 217.088 175.104 392.192 392.192 392.192s392.192-175.104 392.192-392.192S729.6 119.296 512.512 119.296 120.32 294.4 120.32 511.488z" fill="#FBB11B" p-id="53484"></path><path d="M904.192 511.488c0-83.968-28.16-167.936-76.8-230.912-62.976-49.152-146.944-76.8-230.912-76.8-217.088 0-392.192 175.104-392.192 392.192 0 83.968 28.16 167.936 76.8 230.912 62.976 49.152 146.944 76.8 230.912 76.8 217.088 0 392.192-175.104 392.192-392.192z" fill="#FDC72F" p-id="53485"></path><path d="M301.056 429.568l154.624 80.896 98.304-153.088 97.792 153.088 161.792-80.896-97.792 297.472H396.8l-95.744-297.472z" fill="#FBB11B" p-id="53486"></path><path d="M251.904 389.12l154.112 80.896L504.32 317.44l97.792 153.088 161.792-81.408-97.792 297.472H347.136c0 0.512-95.232-297.472-95.232-297.472z" fill="#FBE945" p-id="53487"></path></svg>