<?xml version="1.0" encoding="utf-8"?>
<svg version="1.1" xmlns:xlink="http://www.w3.org/1999/xlink" width="15px" height="15px" xmlns="http://www.w3.org/2000/svg">
  <g transform="matrix(1 0 0 1 -1266 -723 )">
    <path d="M 1273.5 723  C 1277.7 723  1281 726.3  1281 730.5  C 1281 734.7  1277.7 738  1273.5 738  C 1269.3 738  1266 734.7  1266 730.5  C 1266 726.3  1269.3 723  1273.5 723  Z " fill-rule="nonzero" fill="#ffffff" stroke="none" />
    <path d="M 1273.5 723.5  C 1277.42 723.5  1280.5 726.58  1280.5 730.5  C 1280.5 734.42  1277.42 737.5  1273.5 737.5  C 1269.58 737.5  1266.5 734.42  1266.5 730.5  C 1266.5 726.58  1269.58 723.5  1273.5 723.5  Z " stroke-width="1" stroke="#797979" fill="none" />
  </g>
</svg>