<svg t="1763111273237" class="icon" viewBox="0 0 1024 1024" version="1.1" xmlns="http://www.w3.org/2000/svg" p-id="11728" width="200" height="200"><path d="M512 64C264.576 64 64 264.576 64 512s200.576 448 448 448 448-200.576 448-448S759.424 64 512 64z m214.679 534.511L536.463 788.727a32.325 32.325 0 0 1-1.784 1.952c-6.225 6.225-14.434 9.331-22.639 9.32L512 800l-0.04-0.001c-8.205 0.011-16.414-3.095-22.639-9.32a32.026 32.026 0 0 1-1.784-1.952L297.321 598.511c-12.427-12.427-12.427-32.763 0-45.191 12.427-12.427 32.763-12.427 45.191 0L480 690.809V256c0-17.6 14.4-32 32-32s32 14.4 32 32v434.809L681.489 553.32c12.427-12.427 32.763-12.427 45.191 0 12.427 12.428 12.427 32.764-0.001 45.191z" p-id="11729" fill="#4366EC"></path></svg>