<?xml version="1.0" encoding="utf-8"?>
<svg version="1.1" xmlns:xlink="http://www.w3.org/1999/xlink" width="11px" height="9px" xmlns="http://www.w3.org/2000/svg">
  <g transform="matrix(1 0 0 1 -881 -139 )">
    <path d="M 8.3359375 8.138671875  C 8.41967147435897 8.064453125  8.46153846153846 7.9765625  8.46153846153846 7.875  C 8.46153846153846 7.7734375  8.41967147435897 7.685546875  8.3359375 7.611328125  C 8.25220352564103 7.537109375  8.15304487179487 7.5  8.03846153846154 7.5  C 7.92387820512821 7.5  7.82471955128205 7.537109375  7.74098557692308 7.611328125  C 7.6572516025641 7.685546875  7.61538461538462 7.7734375  7.61538461538462 7.875  C 7.61538461538462 7.9765625  7.6572516025641 8.064453125  7.74098557692308 8.138671875  C 7.82471955128205 8.212890625  7.92387820512821 8.25  8.03846153846154 8.25  C 8.15304487179487 8.25  8.25220352564103 8.212890625  8.3359375 8.138671875  Z M 10.0282451923077 8.138671875  C 10.1119791666667 8.064453125  10.1538461538462 7.9765625  10.1538461538462 7.875  C 10.1538461538462 7.7734375  10.1119791666667 7.685546875  10.0282451923077 7.611328125  C 9.94451121794872 7.537109375  9.84535256410256 7.5  9.73076923076923 7.5  C 9.6161858974359 7.5  9.51702724358974 7.537109375  9.43329326923077 7.611328125  C 9.3495592948718 7.685546875  9.30769230769231 7.7734375  9.30769230769231 7.875  C 9.30769230769231 7.9765625  9.3495592948718 8.064453125  9.43329326923077 8.138671875  C 9.51702724358974 8.212890625  9.6161858974359 8.25  9.73076923076923 8.25  C 9.84535256410256 8.25  9.94451121794872 8.212890625  10.0282451923077 8.138671875  Z M 10.8149038461538 6.1640625  C 10.9383012820513 6.2734375  11 6.40625  11 6.5625  L 11 8.4375  C 11 8.59375  10.9383012820513 8.7265625  10.8149038461538 8.8359375  C 10.6915064102564 8.9453125  10.5416666666667 9  10.3653846153846 9  L 0.634615384615385 9  C 0.458333333333333 9  0.30849358974359 8.9453125  0.185096153846154 8.8359375  C 0.0616987179487179 8.7265625  0 8.59375  0 8.4375  L 0 6.5625  C 0 6.40625  0.0616987179487179 6.2734375  0.185096153846154 6.1640625  C 0.30849358974359 6.0546875  0.458333333333333 6  0.634615384615385 6  L 3.70853365384615 6  L 4.60096153846154 6.796875  C 4.85657051282051 7.015625  5.15625 7.125  5.5 7.125  C 5.84375 7.125  6.14342948717949 7.015625  6.39903846153846 6.796875  L 7.29807692307692 6  L 10.3653846153846 6  C 10.5416666666667 6  10.6915064102564 6.0546875  10.8149038461538 6.1640625  Z M 8.46153846153846 3  C 8.64663461538462 3  8.77664262820513 3.076171875  8.8515625 3.228515625  C 8.92648237179487 3.388671875  8.89563301282051 3.525390625  8.75901442307692 3.638671875  L 5.79747596153846 6.263671875  C 5.71814903846154 6.337890625  5.61899038461539 6.375  5.5 6.375  C 5.38100961538462 6.375  5.28185096153846 6.337890625  5.20252403846154 6.263671875  L 2.24098557692308 3.638671875  C 2.10436698717949 3.525390625  2.07351762820513 3.388671875  2.1484375 3.228515625  C 2.22335737179487 3.076171875  2.35336538461538 3  2.53846153846154 3  L 4.23076923076923 3  L 4.23076923076923 0.375  C 4.23076923076923 0.273437499999999  4.27263621794872 0.185546874999999  4.35637019230769 0.111328125  C 4.44010416666667 0.0371093750000006  4.53926282051282 0  4.65384615384615 0  L 6.34615384615385 0  C 6.46073717948718 0  6.55989583333333 0.0371093750000006  6.64362980769231 0.111328125  C 6.72736378205128 0.185546874999999  6.76923076923077 0.273437499999999  6.76923076923077 0.375  L 6.76923076923077 3  L 8.46153846153846 3  Z " fill-rule="nonzero" fill="#ffffff" stroke="none" transform="matrix(1 0 0 1 881 139 )" />
  </g>
</svg>